<svg xmlns="http://www.w3.org/2000/svg" width="485" height="306" viewBox="0 0 485 306"><g transform="translate(-310 -349.857)"><circle cx="104.5" cy="104.5" r="104.5" transform="translate(448 371.857)" fill="rgba(26,98,78,0.07)"/><g transform="translate(-43.133 914.734)"><g transform="translate(456.945 -451.092)"><path d="M469.1-400.411A1.094,1.094,0,0,1,468-401.5a1.094,1.094,0,0,1,1.093-1.1l9.365-.012h0a1.094,1.094,0,0,1,1.094,1.093,1.094,1.094,0,0,1-1.093,1.1l-9.365.012Z" transform="translate(-468.003 407.289)" fill="#f0ad18"/><path d="M475.52-397.47a1.1,1.1,0,0,1-1.094-1.093l-.011-9.366a1.094,1.094,0,0,1,1.093-1.1h0a1.094,1.094,0,0,1,1.094,1.093l.011,9.366a1.094,1.094,0,0,1-1.093,1.1Z" transform="translate(-469.738 409.024)" fill="#f0ad18"/></g><path d="M755.619-441.75a1.462,1.462,0,0,0-.91-.729l-6.992-1.9a1.461,1.461,0,0,0-1.791,1.024,1.45,1.45,0,0,0,.141,1.109,1.45,1.45,0,0,0,.884.684l3.41.926-9.749,5.121a1.46,1.46,0,0,0-.613,1.97,1.459,1.459,0,0,0,1.293.78,1.45,1.45,0,0,0,.677-.168l9.752-5.122-1.174,3.335a1.455,1.455,0,0,0,.06,1.117,1.455,1.455,0,0,0,.834.746,1.45,1.45,0,0,0,.481.082,1.463,1.463,0,0,0,1.379-.976l2.4-6.836A1.462,1.462,0,0,0,755.619-441.75Z" transform="translate(-84.605 -32.488)" fill="#f0ad18"/><path d="M738.785-506.357a3.8,3.8,0,0,1-3.8-3.795,3.8,3.8,0,0,1,3.8-3.793,3.8,3.8,0,0,1,3.793,3.793A3.8,3.8,0,0,1,738.785-506.357Zm0-5.4a1.608,1.608,0,0,0-1.607,1.6,1.608,1.608,0,0,0,1.607,1.606,1.606,1.606,0,0,0,1.6-1.606A1.606,1.606,0,0,0,738.785-511.757Z" transform="translate(-83.295 -13.68)" fill="#f0ad18"/><path d="M848.883-435.746h-5.127a1.458,1.458,0,0,1-1.459-1.459,1.459,1.459,0,0,1,1.459-1.459h5.127a1.459,1.459,0,0,1,1.459,1.459A1.458,1.458,0,0,1,848.883-435.746Z" transform="translate(-112.328 -34.048)" fill="#f0ad18"/><path d="M739.733-436.381a1.612,1.612,0,0,0-1.01-.79l-8.42-2.178a1.609,1.609,0,0,0-1.956,1.151,1.6,1.6,0,0,0,.17,1.217,1.6,1.6,0,0,0,.982.74l4.673,1.208-54.543,29.512-25.6-21.114-63.216,35.99-7.442-2.029a1.46,1.46,0,0,0-1.792,1.023,1.458,1.458,0,0,0,1.023,1.792l8.605,2.347L653.722-423.1l25.568,21.084,56.274-30.449-1.547,4.575a1.594,1.594,0,0,0,.082,1.227,1.6,1.6,0,0,0,.926.809,1.6,1.6,0,0,0,.511.084,1.609,1.609,0,0,0,1.523-1.091l2.783-8.238A1.608,1.608,0,0,0,739.733-436.381Z" transform="translate(-41.773 -33.849)" fill="#f0ad18"/><path d="M789.109-206.706a2.068,2.068,0,0,1-2.067,2.069,2.068,2.068,0,0,1-2.069-2.069,2.069,2.069,0,0,1,2.069-2.069A2.068,2.068,0,0,1,789.109-206.706Z" transform="translate(-96.818 -96.248)" fill="#f0ad18"/><path d="M824.355-327.443H812.684a1.459,1.459,0,0,1-1.459-1.459,1.459,1.459,0,0,1,1.459-1.459h11.671a1.458,1.458,0,0,1,1.459,1.459A1.459,1.459,0,0,1,824.355-327.443Z" transform="translate(-103.921 -63.351)" fill="#f0ad18"/><path d="M762.674-147.1H428.592a1.459,1.459,0,0,1-1.459-1.459,1.459,1.459,0,0,1,1.459-1.459H762.674a1.459,1.459,0,0,1,1.459,1.459A1.459,1.459,0,0,1,762.674-147.1Z" transform="translate(0 -112.145)" fill="#1a624e"/><path d="M486.449-306.355a1.458,1.458,0,0,1-1.411-1.092l-1.82-6.989a1.457,1.457,0,0,1,0-.747l7.687-28.5a1.5,1.5,0,0,1,.144-.348l12.237-21.257a1.46,1.46,0,0,1,1.621-.686,1.459,1.459,0,0,1,1.1,1.373l1.176,40.889H521.8a1.459,1.459,0,0,1,1.459,1.459,1.459,1.459,0,0,1-1.459,1.459H505.771a1.458,1.458,0,0,1-1.458-1.417l-1.069-37.149-9.568,16.62L486.139-314.8l1.723,6.615a1.46,1.46,0,0,1-1.045,1.78A1.458,1.458,0,0,1,486.449-306.355Z" transform="translate(-15.162 -53.704)" fill="#1a624e"/><path d="M477.762-280.751a1.434,1.434,0,0,1-.331-.038,1.459,1.459,0,0,1-1.091-1.751c.178-.77.759-2.687.861-3.024.081-.349.543-2.3,1.12-4.037a1.455,1.455,0,0,1,1.844-.923,1.458,1.458,0,0,1,.924,1.845c-.577,1.732-1.052,3.8-1.056,3.816s-.017.067-.027.1c-.182.6-.684,2.274-.825,2.882A1.459,1.459,0,0,1,477.762-280.751Z" transform="translate(-13.303 -74.109)" fill="#1a624e"/><path d="M470.666-312.927a1.457,1.457,0,0,1-1.2-.622l-2.553-3.647a1.462,1.462,0,0,1-.237-1.115l1.7-8.77,7.9-33.954a1.463,1.463,0,0,1,.122-.333l18.213-35.62a1.452,1.452,0,0,1,.44-.514,45.815,45.815,0,0,1,10.2-5.418,1.459,1.459,0,0,1,1.866.88,1.459,1.459,0,0,1-.88,1.866,43.263,43.263,0,0,0-9.189,4.836L479.083-360.2l-7.847,33.728-1.575,8.11,2.2,3.141a1.459,1.459,0,0,1-.358,2.031A1.455,1.455,0,0,1,470.666-312.927Z" transform="translate(-10.692 -43.696)" fill="#1a624e"/><path d="M553.61-420.473a1.461,1.461,0,0,1-1.423-1.143,1.459,1.459,0,0,1,1.108-1.74l6.293-1.4,22.145-15,16.249-24.452-1.161-4.18a1.46,1.46,0,0,1,1.016-1.8,1.461,1.461,0,0,1,1.8,1.015l1.339,4.824a1.458,1.458,0,0,1-.19,1.2L584-437.9a1.441,1.441,0,0,1-.4.4l-22.613,15.318a1.452,1.452,0,0,1-.5.216l-6.565,1.459A1.453,1.453,0,0,1,553.61-420.473Z" transform="translate(-33.826 -25.506)" fill="#1a624e"/><path d="M565.946-328.784h-.027a1.459,1.459,0,0,1-1.432-1.485l.972-53.979a1.442,1.442,0,0,1,1.485-1.432,1.458,1.458,0,0,1,1.432,1.484l-.972,53.979A1.459,1.459,0,0,1,565.946-328.784Z" transform="translate(-37.163 -48.383)" fill="#1a624e"/><path d="M560.486-192.6c-2.907,0-16.409-.422-16.983-.439l-1.389-.044-.7-39.975-1.944-38a1.458,1.458,0,0,1,1.382-1.532,1.449,1.449,0,0,1,1.532,1.382l1.945,38.052.655,37.245c3.451.106,12.338.371,15.149.394a1.168,1.168,0,0,0,.078-.545,1.587,1.587,0,0,0-.686-1.166,7.6,7.6,0,0,0-1.913-1.069c-.293-.134-.643-.294-1.075-.5l-.807-.376-.034-.89c-.406-10.648,1.209-61.195,1.279-63.341l.865-50.674a1.459,1.459,0,0,1,1.458-1.434h.026a1.458,1.458,0,0,1,1.433,1.483l-.865,50.7c-.017.533-1.6,49.977-1.307,62.268l.239.109a10.361,10.361,0,0,1,2.452,1.389,4.459,4.459,0,0,1,1.747,4.56,2.978,2.978,0,0,1-2.262,2.382l-.26.023Z" transform="translate(-30.393 -67.368)" fill="#1a624e"/><path d="M536.864-414.019a1.459,1.459,0,0,1-1.425-1.154,1.459,1.459,0,0,1,1.121-1.732l3.81-.815.228-4.664.865-.349c1.434-.584,3.48-1.9,3.589-2.859,1.179-10.366-.3-16.123-.313-16.18a1.461,1.461,0,0,1,1.034-1.784,1.457,1.457,0,0,1,1.784,1.029c.068.252,1.643,6.285.394,17.264-.276,2.43-3.006,4.1-4.528,4.845l-.249,5.083-6,1.283A1.428,1.428,0,0,1,536.864-414.019Z" transform="translate(-29.295 -32.711)" fill="#1a624e"/><path d="M520.478-437.815a1.455,1.455,0,0,1-1.428-1.176,16.61,16.61,0,0,1,1.164-8.782l.109-.214a13.95,13.95,0,0,1,14.869-5.624c3.908,1,6.31,3.312,7.788,7.508l.18.513-.2.506c-1.461,3.72-4.547,5.71-10.316,6.653-.848.139-4.3.185-5.344.2h-.016a1.458,1.458,0,0,1-1.458-1.444,1.458,1.458,0,0,1,1.444-1.474c2.025-.022,4.475-.088,4.9-.158,5.065-.828,6.909-2.336,7.858-4.346a7.485,7.485,0,0,0-5.563-5.126,10.938,10.938,0,0,0-11.6,4.233,13.914,13.914,0,0,0-.953,7.005,1.462,1.462,0,0,1-1.16,1.7A1.489,1.489,0,0,1,520.478-437.815Z" transform="translate(-24.825 -29.886)" fill="#1a624e"/><path d="M518.342-405.337a1.46,1.46,0,0,1-1.361-.932,1.459,1.459,0,0,1,.833-1.888l3.53-1.369-.085-12.488a1.46,1.46,0,0,1,1.449-1.469h.011a1.459,1.459,0,0,1,1.458,1.449l.1,14.5-5.406,2.1A1.458,1.458,0,0,1,518.342-405.337Z" transform="translate(-24.283 -38.156)" fill="#1a624e"/><path d="M524.422-423.08a1.493,1.493,0,0,1-.259-.023c-3.258-.582-4.425-2.394-4.831-3.811a4.628,4.628,0,0,1,3.17-5.716,4.644,4.644,0,0,1,4.085.772,1.459,1.459,0,0,1,.273,2.045,1.457,1.457,0,0,1-2.045.274,1.69,1.69,0,0,0-1.508-.285,1.707,1.707,0,0,0-1.17,2.108c.167.583.612,1.4,2.54,1.742a1.459,1.459,0,0,1,1.18,1.693A1.46,1.46,0,0,1,524.422-423.08Z" transform="translate(-24.897 -35.633)" fill="#1a624e"/><path d="M512.009-365.234a1.456,1.456,0,0,1-.6-.129,1.459,1.459,0,0,1-.732-1.929l2.188-4.863a1.459,1.459,0,0,1,1.929-.732,1.46,1.46,0,0,1,.732,1.929l-2.188,4.863A1.459,1.459,0,0,1,512.009-365.234Z" transform="translate(-22.57 -51.81)" fill="#1a624e"/><path d="M499.726-191.184c-5.117,0-13.4-.055-13.847-.058l-1.776-.012,13.2-64.255c.054-.349,6.582-41.147,7.758-52.859a1.456,1.456,0,0,1,1.6-1.306,1.458,1.458,0,0,1,1.306,1.6c-1.184,11.8-7.725,52.68-7.792,53.092l-12.492,60.837c3.832.023,12.732.073,15.265.033a.681.681,0,0,0,.278-.421,1.149,1.149,0,0,0-.053-.941c-.532-.427-1.883-1.509-2.953-2.5l-.645-.6.23-.85c3.161-11.671,13.934-51.426,13.934-51.426l10.276-40.238.725-.264a58.311,58.311,0,0,0,5.438-2.364,1.458,1.458,0,0,1,1.958.653,1.459,1.459,0,0,1-.653,1.957c-2.074,1.037-4.008,1.827-5.019,2.22l-9.9,38.778c-.006.02-10.28,37.934-13.7,50.581.845.74,1.733,1.451,2.117,1.759a3.783,3.783,0,0,1,1.056,4.047,3.342,3.342,0,0,1-2.824,2.521l-.116.007C502.394-191.188,501.189-191.184,499.726-191.184Z" transform="translate(-15.414 -68.946)" fill="#1a624e"/><path d="M567.612-404.885a1.455,1.455,0,0,1-1.128-.533,1.459,1.459,0,0,1,.2-2.053L596.34-431.82l14.309-30.189a1.443,1.443,0,0,1,.287-.406l7.294-7.294a1.457,1.457,0,0,1,2.063,0,1.457,1.457,0,0,1,0,2.063l-7.116,7.116-14.34,30.256a1.459,1.459,0,0,1-.392.5l-29.907,24.557A1.456,1.456,0,0,1,567.612-404.885Z" transform="translate(-37.614 -25.533)" fill="#1a624e"/><path d="M537.136-352.215l-6.968-6.755.041-.67c.015-.241,1.473-23.77,2.447-33.859l-2.285-3.371a1.459,1.459,0,0,1,.389-2.026,1.459,1.459,0,0,1,2.026.389l2.878,4.244-.053.527c-.878,8.806-2.2,29.607-2.448,33.607l3.9,3.78,3.369-3.506-4.14-34.117.2-.392c.045-.09,1.126-2.247,2.319-4.272a1.459,1.459,0,0,1,2-.516,1.458,1.458,0,0,1,.516,2c-.851,1.445-1.664,3-2.026,3.708l4.2,34.614Z" transform="translate(-27.864 -44.684)" fill="#f0ad18"/><g transform="translate(680.799 -564.507)"><path d="M815.438-483.313a40.369,40.369,0,0,1-22.347-6.731,40.42,40.42,0,0,1-10.118-9.539,1.458,1.458,0,0,1,.3-2.042,1.458,1.458,0,0,1,2.042.3,37.508,37.508,0,0,0,9.39,8.851,37.732,37.732,0,0,0,52.231-10.632A37.738,37.738,0,0,0,836.3-555.344a37.734,37.734,0,0,0-52.231,10.635,37.619,37.619,0,0,0-5.865,26.22,1.458,1.458,0,0,1-1.233,1.654,1.459,1.459,0,0,1-1.654-1.233,40.525,40.525,0,0,1,6.32-28.25,40.655,40.655,0,0,1,56.274-11.459A40.659,40.659,0,0,1,849.365-501.5,40.6,40.6,0,0,1,815.438-483.313Z" transform="translate(-774.889 564.507)" fill="#f0ad18"/><path d="M820.724-492.247a26.2,26.2,0,0,1-14.5-4.388,26.565,26.565,0,0,1-5.057-4.35,1.458,1.458,0,0,1,.1-2.061,1.459,1.459,0,0,1,2.06.1,23.646,23.646,0,0,0,4.5,3.873,23.3,23.3,0,0,0,17.628,3.425,23.3,23.3,0,0,0,14.885-10.041,23.307,23.307,0,0,0,3.423-17.626A23.3,23.3,0,0,0,833.722-538.2a23.487,23.487,0,0,0-32.51,6.618,23.252,23.252,0,0,0-3.828,14.776,1.459,1.459,0,0,1-1.341,1.568,1.453,1.453,0,0,1-1.568-1.341,26.139,26.139,0,0,1,4.3-16.613,26.409,26.409,0,0,1,36.552-7.441A26.2,26.2,0,0,1,846.624-523.9a26.2,26.2,0,0,1-3.849,19.819,26.2,26.2,0,0,1-16.735,11.291A26.648,26.648,0,0,1,820.724-492.247Z" transform="translate(-780.166 559.229)" fill="#f0ad18"/><path d="M826.025-499.787a14.34,14.34,0,0,1-3.932-.552,1.46,1.46,0,0,1-1-1.8,1.46,1.46,0,0,1,1.8-1,11.268,11.268,0,0,0,12.532-4.635,11.315,11.315,0,0,0-3.188-15.661,11.225,11.225,0,0,0-8.489-1.649,11.224,11.224,0,0,0-7.17,4.839,1.458,1.458,0,0,1-2.021.411,1.459,1.459,0,0,1-.412-2.021,14.12,14.12,0,0,1,9.021-6.088,14.129,14.129,0,0,1,10.682,2.075,14.236,14.236,0,0,1,4.01,19.7A14.166,14.166,0,0,1,826.025-499.787Z" transform="translate(-785.445 554.694)" fill="#f0ad18"/></g><g transform="translate(602.868 -527.896)"><g transform="translate(0 4.795)"><path d="M682.909-478.031a14.874,14.874,0,0,1-14.858-14.856,14.873,14.873,0,0,1,14.858-14.856,14.873,14.873,0,0,1,14.856,14.856A14.873,14.873,0,0,1,682.909-478.031Zm0-26.8a11.953,11.953,0,0,0-11.94,11.939,11.953,11.953,0,0,0,11.94,11.939,11.952,11.952,0,0,0,11.938-11.939A11.952,11.952,0,0,0,682.909-504.826Z" transform="translate(-668.051 507.744)" fill="#f0ad18"/></g><path d="M685.1-485.044l-6.323-4.248a1.458,1.458,0,0,1-.4-2.024,1.458,1.458,0,0,1,2.024-.4l3.96,2.66,4.926-6.959a1.457,1.457,0,0,1,2.033-.348,1.458,1.458,0,0,1,.348,2.033Z" transform="translate(-670.777 509.531)" fill="#1a624e"/><path d="M687.966-511.4h-3.947a1.459,1.459,0,0,1-1.459-1.459,1.458,1.458,0,0,1,1.459-1.459h3.947a1.459,1.459,0,0,1,1.459,1.459A1.459,1.459,0,0,1,687.966-511.4Z" transform="translate(-671.977 514.317)" fill="#f0ad18"/></g><path d="M719.383-243.405a1.459,1.459,0,0,1-1.441-1.242,1.458,1.458,0,0,1,1.226-1.659l3.374-.506a1.458,1.458,0,0,1,1.659,1.226,1.458,1.458,0,0,1-1.227,1.659l-3.373.506A1.47,1.47,0,0,1,719.383-243.405Z" transform="translate(-78.678 -85.951)" fill="#1a624e"/><path d="M730.856-283.022a1.383,1.383,0,0,1-.164-.009l-34.755-3.93a1.458,1.458,0,0,1-1.254-1.106c-.043-.177-4.309-17.838-5.663-27.327-.046-.322-.107-.657-.17-1-.527-2.916-1.325-7.323,4.849-10.667.828-.448,6.205-3.008,7.084-3.407a1.458,1.458,0,0,1,1.932.725,1.459,1.459,0,0,1-.724,1.932c-.905.411-6.191,2.932-6.9,3.317-4.316,2.338-3.855,4.885-3.368,7.582.07.384.136.756.187,1.112,1.15,8.064,4.457,22.209,5.372,26.061l32.977,3.728,2.8-3.219a1.459,1.459,0,0,1,.956-.495l.465-.046.178-.356-1.891-.7a1.46,1.46,0,0,1-.861-1.875,1.461,1.461,0,0,1,1.875-.861L737.2-292.3a1.46,1.46,0,0,1,.851.833,1.461,1.461,0,0,1-.052,1.188l-1.265,2.53a1.459,1.459,0,0,1-1.16.8l-.689.069-2.923,3.361A1.458,1.458,0,0,1,730.856-283.022Z" transform="translate(-70.716 -63.285)" fill="#1a624e"/><path d="M739.791-305.054a1.459,1.459,0,0,1-1.286-.767l-2.5-4.644a1.417,1.417,0,0,1-.131-.336c-.024-.1-2.417-9.61-2.84-11.048-.549-1.874-.923-2.337-1.607-2.722-3.183-1.8-8.24-3.956-8.291-3.978a1.459,1.459,0,0,1-.77-1.914,1.457,1.457,0,0,1,1.914-.77c.213.091,5.258,2.246,8.58,4.121,1.675.943,2.358,2.343,2.973,4.442.411,1.4,2.484,9.626,2.825,10.982l2.415,4.485a1.458,1.458,0,0,1-.593,1.976A1.453,1.453,0,0,1,739.791-305.054Z" transform="translate(-79.847 -63.083)" fill="#1a624e"/><path d="M699.3-179.1c-3.238,0-7.4-.119-8.072-.139l-1.535-.044.124-1.531c.044-.546,4.441-54.947,6.6-84.29a1.463,1.463,0,0,1,1.562-1.347,1.458,1.458,0,0,1,1.347,1.562c-1.959,26.576-5.749,73.694-6.483,82.776,3.619.091,8.248.151,9.567.018a.746.746,0,0,0-.075-.576c-.3-.194-.608-.35-.995-.548-.368-.188-.772-.4-1.255-.675l-.826-.479.107-.949c.9-7.96,2.746-17.323,4.7-27.234,2.254-11.446,4.809-24.42,6.469-37.976l.085-.69.589-.369a3.69,3.69,0,0,1,2.125-.357c.079,0,.15.007.207.007l1.366-.2.229,1.418c3.171,19.624,8.82,60.6,9.874,68.272,2.38.021,7.485.065,9.608.072a.791.791,0,0,0-.288-.807,5.015,5.015,0,0,0-1.33-.762l-1.538-.729-.087-.81c-1.205-11.271-2.17-27.927-2.946-41.309-.463-7.988-.863-14.886-1.194-18.508a1.458,1.458,0,0,1,1.32-1.586,1.457,1.457,0,0,1,1.586,1.32c.336,3.671.737,10.591,1.2,18.605.755,13.031,1.691,29.172,2.849,40.353l.044.021a7.769,7.769,0,0,1,1.889,1.1,3.681,3.681,0,0,1,1.322,3.83,2.742,2.742,0,0,1-2.069,2.172l-.258.023H735.1c-2.223,0-11.277-.083-11.369-.084l-1.261-.011-.171-1.25c-.061-.448-5.8-42.4-9.381-65.331-1.656,12.187-3.94,23.788-5.98,34.144-1.861,9.448-3.622,18.392-4.547,26.027l.289.148a13.932,13.932,0,0,1,1.242.69,3.437,3.437,0,0,1,1.337,3.693,2.736,2.736,0,0,1-2.368,2.22A35.476,35.476,0,0,1,699.3-179.1Zm3.247-3.011h0Zm10.945-69.822h0Z" transform="translate(-71.039 -80.641)" fill="#1a624e"/><path d="M719.42-335.148a1.459,1.459,0,0,1-1.306-.807,1.459,1.459,0,0,1,.653-1.957c.772-.387,1.606-.849,2.2-1.186a29.76,29.76,0,0,1-.043-3.665l.042-.818.72-.391c1.87-1.015,2.453-4.09,2.614-6.491.5-7.459-.354-9.547-.363-9.567a1.431,1.431,0,0,1,.621-1.943,1.486,1.486,0,0,1,1.986.635c.209.394,1.22,2.778.667,11.07-.272,4.077-1.414,6.893-3.4,8.389a24.014,24.014,0,0,0,.145,3.374l.13.957-.829.5c-.069.04-1.692,1.006-3.182,1.751A1.459,1.459,0,0,1,719.42-335.148Z" transform="translate(-78.687 -54.754)" fill="#1a624e"/><path d="M706.3-357.011a1.456,1.456,0,0,1-1.443-1.26,12.014,12.014,0,0,1,1.018-6.231c1.485-3.069,5.605-5.539,10.6-4.325a8.959,8.959,0,0,1,6.8,6.608l.088.422-.154.4c-1.22,3.177-4.452,3.137-7.876,3.1-.43-.005-.874-.01-1.331-.01-.855,0-1.286.235-1.334.468a.3.3,0,0,0,.007-.085l-2.914-.14c.053-1.093,1.006-3.16,4.241-3.16.468,0,.924.005,1.366.01,2.971.035,4.339-.034,4.926-.864a6.213,6.213,0,0,0-4.514-3.912c-3.874-.942-6.523,1.193-7.283,2.76a9.15,9.15,0,0,0-.753,4.571,1.461,1.461,0,0,1-1.255,1.635A1.462,1.462,0,0,1,706.3-357.011Z" transform="translate(-75.124 -52.859)" fill="#1a624e"/><path d="M705.454-331.358a1.46,1.46,0,0,1-1.273-.744,1.46,1.46,0,0,1,.556-1.987l1.285-.723.166-8.241a1.436,1.436,0,0,1,1.488-1.429A1.458,1.458,0,0,1,709.1-343l-.2,9.908-2.737,1.541A1.449,1.449,0,0,1,705.454-331.358Z" transform="translate(-74.908 -59.53)" fill="#1a624e"/><path d="M708.822-343.982a1.433,1.433,0,0,1-.185-.012c-2.7-.34-3.679-1.818-4.024-3a4,4,0,0,1,2.579-4.846,3.84,3.84,0,0,1,3.439.483,1.459,1.459,0,0,1,.345,2.034,1.457,1.457,0,0,1-2.034.345.9.9,0,0,0-.817-.1,1.071,1.071,0,0,0-.712,1.261c.066.225.22.751,1.589.923a1.459,1.459,0,0,1,1.266,1.63A1.46,1.46,0,0,1,708.822-343.982Z" transform="translate(-75.035 -57.485)" fill="#1a624e"/><path d="M731.738-285.576a1.5,1.5,0,0,1-.278-.026l-21.683-4.2a1.46,1.46,0,0,1-1.146-1.113l-3.483-15.541a1.459,1.459,0,0,1,1.1-1.743,1.457,1.457,0,0,1,1.743,1.1l3.275,14.609,20.224,3.921,1.813-1.007a1.459,1.459,0,0,1,1.984.566,1.459,1.459,0,0,1-.566,1.984l-2.277,1.266A1.461,1.461,0,0,1,731.738-285.576Z" transform="translate(-75.211 -69.336)" fill="#1a624e"/><path d="M735.963-269.933a1.426,1.426,0,0,1-.214-.015,1.458,1.458,0,0,1-1.231-1.656l.51-3.46a1.457,1.457,0,0,1,1.656-1.231,1.458,1.458,0,0,1,1.231,1.655l-.51,3.46A1.458,1.458,0,0,1,735.963-269.933Z" transform="translate(-83.163 -77.975)" fill="#1a624e"/><path d="M720.085-334.479a6.636,6.636,0,0,1-3.361-.856,1.461,1.461,0,0,1-.524-2,1.46,1.46,0,0,1,2-.525,4.528,4.528,0,0,0,3.213.291,1.462,1.462,0,0,1,1.824.956,1.453,1.453,0,0,1-.94,1.824A7.814,7.814,0,0,1,720.085-334.479Z" transform="translate(-78.157 -61.269)" fill="#1a624e"/><path d="M748.619-289.034a1.475,1.475,0,0,1-.317-.034,1.459,1.459,0,0,1-1.109-1.739l2.921-13.206a5.706,5.706,0,0,1,2.522-3.606,5.719,5.719,0,0,1,4.334-.767l2.261.5a1.459,1.459,0,0,1,1.109,1.74,1.459,1.459,0,0,1-1.739,1.11l-2.261-.5a2.812,2.812,0,0,0-2.134.377,2.813,2.813,0,0,0-1.243,1.776l-2.92,13.206A1.459,1.459,0,0,1,748.619-289.034Z" transform="translate(-86.587 -69.259)" fill="#f0ad18"/><path d="M767.311-257.092a5.773,5.773,0,0,1-1.244-.136l-20.755-4.59a5.715,5.715,0,0,1-3.607-2.524,5.708,5.708,0,0,1-.766-4.334l1.049-4.738a1.458,1.458,0,0,1,1.739-1.109,1.459,1.459,0,0,1,1.109,1.739l-1.048,4.739a2.811,2.811,0,0,0,.377,2.135,2.813,2.813,0,0,0,1.777,1.244l20.755,4.589a2.806,2.806,0,0,0,2.135-.377,2.817,2.817,0,0,0,1.243-1.777l7.453-33.7a2.836,2.836,0,0,0-2.155-3.378l-1.293-.286a1.46,1.46,0,0,1-1.109-1.74,1.46,1.46,0,0,1,1.74-1.109l1.293.287a5.757,5.757,0,0,1,4.372,6.857l-7.453,33.7A5.76,5.76,0,0,1,767.311-257.092Z" transform="translate(-84.867 -70.894)" fill="#f0ad18"/><path d="M778.367-300.255a1.416,1.416,0,0,1-.312-.034l-13.893-3.049a1.459,1.459,0,0,1-1.112-1.738l1.225-5.58a1.455,1.455,0,0,1,.638-.916,1.451,1.451,0,0,1,1.1-.2l2.363.519a5.154,5.154,0,0,1,5.167-1.878,5.161,5.161,0,0,1,3.907,3.87l2.455.54a1.459,1.459,0,0,1,1.112,1.738l-1.225,5.579a1.458,1.458,0,0,1-.639.916A1.455,1.455,0,0,1,778.367-300.255Zm-12.155-5.62,11.042,2.424.6-2.73-2.047-.449a1.458,1.458,0,0,1-1.146-1.448,2.225,2.225,0,0,0-1.745-2.2,2.221,2.221,0,0,0-2.5,1.266,1.458,1.458,0,0,1-1.647.835l-1.953-.429Z" transform="translate(-90.877 -67.982)" fill="#f0ad18"/><path d="M775.238-285.748a1.485,1.485,0,0,1-.332-.038L760.4-289.16a1.458,1.458,0,0,1-1.09-1.751A1.46,1.46,0,0,1,761.06-292l14.508,3.374a1.459,1.459,0,0,1,1.091,1.751A1.459,1.459,0,0,1,775.238-285.748Z" transform="translate(-89.864 -73.719)" fill="#f0ad18"/><path d="M768.994-259.384a1.486,1.486,0,0,1-.332-.038L754.155-262.8a1.459,1.459,0,0,1-1.091-1.751,1.462,1.462,0,0,1,1.751-1.09l14.507,3.374a1.459,1.459,0,0,1,1.091,1.751A1.46,1.46,0,0,1,768.994-259.384Z" transform="translate(-88.175 -80.853)" fill="#f0ad18"/><path d="M774.346-277.109a1.507,1.507,0,0,1-.32-.035l-11.3-2.53a1.459,1.459,0,0,1-1.1-1.742,1.463,1.463,0,0,1,1.742-1.106l11.3,2.53a1.459,1.459,0,0,1,1.105,1.742A1.461,1.461,0,0,1,774.346-277.109Z" transform="translate(-90.49 -76.285)" fill="#f0ad18"/><path d="M772.264-268.09a1.508,1.508,0,0,1-.32-.034l-11.3-2.53a1.46,1.46,0,0,1-1.105-1.743,1.461,1.461,0,0,1,1.743-1.105l11.3,2.53a1.46,1.46,0,0,1,1.105,1.743A1.459,1.459,0,0,1,772.264-268.09Z" transform="translate(-89.927 -78.725)" fill="#f0ad18"/><path d="M621.645-471a1.455,1.455,0,0,1-.74-.2l-2.278-1.34a1.458,1.458,0,0,1-.517-2,1.458,1.458,0,0,1,2-.518l1.744,1.026,6.638-1.844a1.462,1.462,0,0,1,1.8,1.016,1.458,1.458,0,0,1-1.015,1.8l-7.234,2.01A1.454,1.454,0,0,1,621.645-471Z" transform="translate(-51.617 -23.965)" fill="#1a624e"/><g transform="translate(545.506 -419.292)"><path d="M668.771-280.08a1.451,1.451,0,0,1-.9-.314L652.23-292.745a1.446,1.446,0,0,1-.368-.432l-4.19-7.477a1.457,1.457,0,0,1,.559-1.986,1.459,1.459,0,0,1,1.985.56l4.048,7.225,15.411,12.172a1.458,1.458,0,0,1,.241,2.049A1.454,1.454,0,0,1,668.771-280.08Z" transform="translate(-605.125 348.491)" fill="#1a624e"/><path d="M672.751-288.239a1.459,1.459,0,0,1-1.438-1.229l-.418-2.609-3.349-1.675a1.464,1.464,0,0,1-.39-.284l-11.388-11.611a1.45,1.45,0,0,1-.276-.4c-4-8.4-9.172-18.059-10.567-19a57.634,57.634,0,0,0-5.947-2.11,1.459,1.459,0,0,1-.984-1.813,1.459,1.459,0,0,1,1.813-.984,58.37,58.37,0,0,1,6.41,2.294c2.474,1.163,8.411,13.013,11.8,20.141l11.046,11.262,3.8,1.9a1.46,1.46,0,0,1,.788,1.074l.536,3.35a1.459,1.459,0,0,1-1.21,1.67A1.4,1.4,0,0,1,672.751-288.239Z" transform="translate(-602.541 355.846)" fill="#1a624e"/><path d="M596.986-300.551a1.444,1.444,0,0,1-.605-.131,1.46,1.46,0,0,1-.721-1.934L605.429-324a1.458,1.458,0,0,1,.353-.48,50.08,50.08,0,0,1,6.256-4.56,1.458,1.458,0,0,1,2.012.457,1.459,1.459,0,0,1-.457,2.012,50.9,50.9,0,0,0-5.641,4.072l-9.637,21.1A1.457,1.457,0,0,1,596.986-300.551Z" transform="translate(-591.067 355.645)" fill="#1a624e"/><path d="M632.635-274.276h-.044a1.459,1.459,0,0,1-1.447-1.363l-.5-7.588A1.459,1.459,0,0,1,632-284.78a1.463,1.463,0,0,1,1.552,1.36l.409,6.186c2.289-.127,5.942-.592,8.161-1.855a57.889,57.889,0,0,1-2.669-12.356c-.442-3.613-.3-11.715-.3-12.058a1.459,1.459,0,0,1,1.458-1.433h.027a1.46,1.46,0,0,1,1.432,1.485c0,.082-.142,8.24.276,11.651a55.73,55.73,0,0,0,2.885,12.836,1.459,1.459,0,0,1-.456,1.581C641.111-274.35,633.365-274.276,632.635-274.276Z" transform="translate(-600.567 349.062)" fill="#1a624e"/><path d="M598.77-275.532a1.441,1.441,0,0,1-.193-.013,1.457,1.457,0,0,1-1.255-1.638l.445-3.358a1.436,1.436,0,0,1,.044-.209l4.023-14.083a1.421,1.421,0,0,1,.152-.352l8.82-14.65a1.461,1.461,0,0,1,1.582-.668,1.459,1.459,0,0,1,1.121,1.3c.036.434.872,10.664.4,15.145-.4,3.8-1.959,10.62-2.65,13.541a57.168,57.168,0,0,0,6.267,1.308,1.459,1.459,0,0,1,1.242,1.648,1.459,1.459,0,0,1-1.647,1.242,62.167,62.167,0,0,1-8.028-1.77,1.459,1.459,0,0,1-1-1.746c.024-.1,2.425-9.9,2.913-14.527a77.348,77.348,0,0,0-.094-9.993l-6.328,10.51-3.94,13.794-.431,3.252A1.459,1.459,0,0,1,598.77-275.532Z" transform="translate(-591.549 350.578)" fill="#1a624e"/><path d="M652.7-151.93c-2.745,0-8.024-.44-11.767-3.464a1.459,1.459,0,0,1-.438-.593l-.8-2.01a1.458,1.458,0,0,1,.813-1.9,1.459,1.459,0,0,1,1.9.812l.657,1.642c2.8,2.083,6.663,2.53,9.012,2.589a11.872,11.872,0,0,1-3.041-3.023c-.126.066-.247.126-.351.175a1.459,1.459,0,0,1-1.938-.708,1.459,1.459,0,0,1,.708-1.937c.166-.077.379-.193.584-.3.707-.38,1.89-1.016,2.662.1,1.974,2.824,2.951,3.344,3.783,3.633a1.459,1.459,0,0,1,.916.949,13.293,13.293,0,0,1,.387,2.35A1.463,1.463,0,0,1,654.516-152C654.493-152,653.8-151.93,652.7-151.93Zm-4.4-6.949.009.013Z" transform="translate(-602.988 310.165)" fill="#1a624e"/><path d="M613.13-151.942c-2.568,0-7.751-.581-11.6-3.689a1.459,1.459,0,0,1-.541-1.1l-.042-1.773A1.46,1.46,0,0,1,602.376-160h.034a1.459,1.459,0,0,1,1.457,1.425l.025,1.069a16.347,16.347,0,0,0,7.949,2.589,12.157,12.157,0,0,1-2.94-2.958c-.125.066-.246.126-.351.175a1.458,1.458,0,0,1-1.937-.708,1.458,1.458,0,0,1,.708-1.937c.166-.077.379-.193.584-.3.706-.379,1.887-1.012,2.66.1,1.976,2.829,2.954,3.348,3.785,3.637a1.458,1.458,0,0,1,.915.949,13.3,13.3,0,0,1,.39,2.355,1.458,1.458,0,0,1-1.266,1.6A10.541,10.541,0,0,1,613.13-151.942Zm-4.957-6.937,0,0Z" transform="translate(-592.535 310.165)" fill="#1a624e"/><path d="M632.966-335.111a1.457,1.457,0,0,1-1.215-.65,1.458,1.458,0,0,1,.4-2.023l.9-.6-.334-4.549,1.359-.185a2.373,2.373,0,0,0,1.89-1.711,15.462,15.462,0,0,0,.141-7.038,1.459,1.459,0,0,1,1.029-1.788,1.461,1.461,0,0,1,1.788,1.029,18.36,18.36,0,0,1-.127,8.5,5.131,5.131,0,0,1-2.985,3.5l.274,3.719-2.316,1.544A1.453,1.453,0,0,1,632.966-335.111Z" transform="translate(-600.802 362.257)" fill="#1a624e"/><path d="M604.741-333.192c-.043,0-.087,0-.131-.005a1.46,1.46,0,0,1-1.324-1.583c.386-4.335,3.051-5.713,5.193-6.819,1.558-.805,2.913-1.506,3.641-3.235a17.892,17.892,0,0,0-.869-4.811,11.884,11.884,0,0,1-.431-6.951c1.148-5.923,7.949-9.6,12.851-8.7a9.106,9.106,0,0,1,6.334,5.03l.263.577-.243.586a8.271,8.271,0,0,1-7.75,5.185,1.458,1.458,0,0,1-1.4-1.518,1.459,1.459,0,0,1,1.518-1.4,5.392,5.392,0,0,0,4.652-2.8,6.188,6.188,0,0,0-3.9-2.8c-3.525-.648-8.688,2.246-9.467,6.425l-.029.125c-.563,2.014-.133,3.52.41,5.428a20.1,20.1,0,0,1,.984,5.88v.26l-.09.244c-1.094,2.965-3.334,4.123-5.132,5.052-2.037,1.053-3.382,1.748-3.626,4.487A1.459,1.459,0,0,1,604.741-333.192Z" transform="translate(-593.165 365.429)" fill="#1a624e"/><path d="M618.687-330.3a1.457,1.457,0,0,1-1.225-.665,1.459,1.459,0,0,1,.431-2.018l2.766-1.793.085-7.658a1.459,1.459,0,0,1,1.459-1.443h.016a1.459,1.459,0,0,1,1.443,1.475l-.1,9.224-4.081,2.644A1.456,1.456,0,0,1,618.687-330.3Z" transform="translate(-596.939 359.599)" fill="#1a624e"/><path d="M622.86-342.708a1.312,1.312,0,0,1-.131-.006,3.855,3.855,0,0,1-3.6-2.4,3.377,3.377,0,0,1,1.937-4.359,3.39,3.39,0,0,1,3.018.3,1.46,1.46,0,0,1,.449,2.014,1.459,1.459,0,0,1-2.013.449.455.455,0,0,0-.407-.04.455.455,0,0,0-.26.588c.053.138.177.461,1.136.546a1.46,1.46,0,0,1,1.324,1.583A1.46,1.46,0,0,1,622.86-342.708Z" transform="translate(-597.392 361.173)" fill="#1a624e"/><path d="M641.491-305.294a1.46,1.46,0,0,1-1.407-1.076,1.46,1.46,0,0,1,1.024-1.791,3.211,3.211,0,0,0,2.245-2.622c.256-2.691-1-3.577-1.052-3.614a1.441,1.441,0,0,1-.494-1.988,1.476,1.476,0,0,1,2.017-.5c1.069.633,2.784,2.689,2.433,6.378a6.127,6.127,0,0,1-4.382,5.161A1.49,1.49,0,0,1,641.491-305.294Z" transform="translate(-603.109 352.351)" fill="#1a624e"/><path d="M629.182-308.977a1.459,1.459,0,0,1-1.457-1.392l-.339-7.449-6.744-10.6a1.458,1.458,0,0,1,.448-2.014,1.457,1.457,0,0,1,2.013.447l6.953,10.923a1.453,1.453,0,0,1,.227.717l.357,7.838a1.458,1.458,0,0,1-1.391,1.524Z" transform="translate(-597.801 356.021)" fill="#1a624e"/><path d="M631.4-316.789a1.454,1.454,0,0,1-.625-.142,1.459,1.459,0,0,1-.691-1.944l5.157-10.854a1.459,1.459,0,0,1,1.944-.692,1.46,1.46,0,0,1,.692,1.944l-5.158,10.854A1.459,1.459,0,0,1,631.4-316.789Z" transform="translate(-600.38 355.996)" fill="#1a624e"/><path d="M638.893-229.058l-28.016-.054-.118-1.326c-.086-.962-.262-2.115-.467-3.45-.908-5.936-2.429-15.873,1.443-29.037a1.459,1.459,0,0,1,1.812-.988,1.46,1.46,0,0,1,.988,1.812c-3.689,12.541-2.286,21.707-1.358,27.773.128.833.245,1.6.339,2.305l22.937.044c2.886-16.362,2.644-21.927.454-30.857a1.458,1.458,0,0,1,1.069-1.765,1.46,1.46,0,0,1,1.764,1.069c2.482,10.123,2.359,16.653-.631,33.271Z" transform="translate(-594.773 338.16)" fill="#1a624e"/><path d="M650.764-172.006a1.461,1.461,0,0,1-1.342-.885l-1.708-3.986-1.922-31.979a1.46,1.46,0,0,1,1.369-1.544,1.452,1.452,0,0,1,1.544,1.368l1.891,31.472,1.508,3.518a1.458,1.458,0,0,1-.767,1.915A1.455,1.455,0,0,1,650.764-172.006Z" transform="translate(-604.666 323.485)" fill="#1a624e"/><path d="M647.157-209.818a1.458,1.458,0,0,1-1.214-.648c-.328-.49-.4-.592.157-4.048a6.8,6.8,0,0,0-.042-1.33c-.058-.693-.13-1.557-.13-2.719a1.459,1.459,0,0,1,1.459-1.459,1.459,1.459,0,0,1,1.459,1.459c0,1.041.066,1.837.12,2.476a8.349,8.349,0,0,1,.015,2.034c-.307,1.924-.36,2.525-.369,2.676a1.458,1.458,0,0,1-.645,1.312A1.454,1.454,0,0,1,647.157-209.818Zm1.213-2.268Z" transform="translate(-604.64 326.087)" fill="#1a624e"/><path d="M611.553-174.239c-.044,0-.09,0-.134-.006a1.459,1.459,0,0,1-1.321-1.585l.247-2.716,10.69-31.494.516-2.927a1.461,1.461,0,0,1,1.69-1.183,1.461,1.461,0,0,1,1.184,1.691l-.592,3.252-10.614,31.272L613-175.566A1.459,1.459,0,0,1,611.553-174.239Z" transform="translate(-595.008 324.505)" fill="#1a624e"/><path d="M602.29-175.916a1.446,1.446,0,0,1-.642-.15,1.458,1.458,0,0,1-.667-1.953s.219-.446.88-1.761c.247-.885.518-1.84.8-2.829,1.26-4.426,2.827-9.933,2.881-12.024.274-10.6,2.907-15.316,3.955-16.78l.02-.066a15.685,15.685,0,0,0,.849-5.862,1.458,1.458,0,0,1,1.342-1.566,1.455,1.455,0,0,1,1.567,1.342,18.6,18.6,0,0,1-.969,6.943l-.168.557-.168.216c-.33.424-3.231,4.451-3.511,15.291-.064,2.459-1.619,7.926-2.992,12.748-.294,1.034-.578,2.031-.832,2.948l-.1.265c-.7,1.387-.929,1.858-.932,1.864A1.46,1.46,0,0,1,602.29-175.916Zm8.529-34.828h0Z" transform="translate(-592.503 325.787)" fill="#1a624e"/><path d="M639.691-175a1.41,1.41,0,0,1-.279-.027,1.459,1.459,0,0,1-1.155-1.71c0-.011.21-1.092.36-2.462-.643-3.08-1.4-5.879-2-8.138-.423-1.571-.789-2.929-1.029-4.043-1.717-7.964-1.956-13.314-.762-17.272-.046-.728-.079-1.692-.11-2.552-.019-.531-.035-1-.051-1.306a1.459,1.459,0,0,1,1.379-1.534,1.463,1.463,0,0,1,1.534,1.38c.017.315.034.806.053,1.357.032.9.072,2.029.123,2.718l.022.287-.088.273c-.7,2.153-1.377,6.159.753,16.035.225,1.042.581,2.366.993,3.9.633,2.351,1.421,5.277,2.091,8.53l.045.219-.023.223c-.165,1.611-.411,2.889-.422,2.943A1.458,1.458,0,0,1,639.691-175Z" transform="translate(-601.498 324.472)" fill="#1a624e"/><path d="M601.586-151.431a1.459,1.459,0,0,1-1.459-1.459v-5.319a1.459,1.459,0,0,1,1.459-1.459,1.459,1.459,0,0,1,1.459,1.459v5.319A1.459,1.459,0,0,1,601.586-151.431Z" transform="translate(-592.312 309.758)" fill="#1a624e"/><path d="M641.111-151.308a1.459,1.459,0,0,1-1.459-1.459v-5.273a1.459,1.459,0,0,1,1.459-1.459,1.458,1.458,0,0,1,1.459,1.459v5.273A1.458,1.458,0,0,1,641.111-151.308Z" transform="translate(-603.006 309.712)" fill="#1a624e"/><path d="M593.834-266.8c-1.485-.112-4.084-.968-4.409-3.466a1.489,1.489,0,0,1,0-.346l.6-5.523a1.44,1.44,0,0,1,.032-.183l3.9-16.175,2.837.684-3.874,16.086-.57,5.2c.22.576,1.468.8,1.706.818Z" transform="translate(-589.413 345.695)" fill="#1a624e"/><path d="M594.993-269.335a1.087,1.087,0,0,1-.254-.03l-2.544-.6a1.094,1.094,0,0,1-.812-1.317,1.094,1.094,0,0,1,1.317-.811l2.544.6a1.094,1.094,0,0,1,.812,1.317A1.1,1.1,0,0,1,594.993-269.335Z" transform="translate(-589.938 340.185)" fill="#1a624e"/></g><path d="M713.028-253.807H700.434a1.458,1.458,0,0,1-1.459-1.459,1.459,1.459,0,0,1,1.459-1.459h12.594a1.459,1.459,0,0,1,1.459,1.459A1.458,1.458,0,0,1,713.028-253.807Z" transform="translate(-73.55 -83.274)" fill="#1a624e"/><g transform="translate(677.013 -435.564)"><path d="M809.135-368.236H786.853a1.094,1.094,0,0,1-1.094-1.094,1.094,1.094,0,0,1,1.094-1.094h22.281a1.094,1.094,0,0,1,1.094,1.094A1.094,1.094,0,0,1,809.135-368.236Z" transform="translate(-774.043 383.053)" fill="#f0ad18"/><path d="M812.262-361.632H798.411a1.094,1.094,0,0,1-1.094-1.094,1.1,1.1,0,0,1,1.094-1.094h13.851a1.094,1.094,0,0,1,1.094,1.094A1.094,1.094,0,0,1,812.262-361.632Z" transform="translate(-777.171 381.266)" fill="#f0ad18"/><g transform="translate(0 5.93)"><path d="M775.617-352.761a1.457,1.457,0,0,1-.756-.212,1.457,1.457,0,0,1-.682-1.488l.827-4.938H772.55a2.855,2.855,0,0,1-2.852-2.852v-14.5a2.855,2.855,0,0,1,2.852-2.852h36.418a2.855,2.855,0,0,1,2.852,2.852v14.5a2.855,2.855,0,0,1-2.852,2.852H784.9l-8.406,6.343A1.458,1.458,0,0,1,775.617-352.761Zm-3-9.556h4.113a1.456,1.456,0,0,1,1.114.516,1.458,1.458,0,0,1,.325,1.183l-.507,3.027,5.873-4.433a1.456,1.456,0,0,1,.878-.294H808.9v-14.373H772.616Z" transform="translate(-769.698 379.607)" fill="#f0ad18"/></g><path d="M810-384.818h-38.43a1.459,1.459,0,0,1-1.459-1.459,1.459,1.459,0,0,1,1.459-1.459H810a1.459,1.459,0,0,1,1.459,1.459A1.459,1.459,0,0,1,810-384.818Z" transform="translate(-769.809 387.737)" fill="#1a624e"/></g><g transform="translate(592.685 -528.891)"><g transform="translate(0 0)"><path d="M655.552-410.973a1.457,1.457,0,0,1-1.251-.707,1.458,1.458,0,0,1,.5-2l43.678-26.293.481-25.141,86.536-47.575a1.46,1.46,0,0,1,1.981.576,1.459,1.459,0,0,1-.576,1.981l-85.057,46.762-.479,25.066L656.3-411.183A1.451,1.451,0,0,1,655.552-410.973Z" transform="translate(-654.092 514.921)" fill="#1a624e"/><g transform="translate(124.987)"><path d="M832.071-504.99l-1.941-.64,1.741-6.164-6.431-1.905.5-1.982,8.559,2.443Z" transform="translate(-825.439 515.681)" fill="#1a624e"/></g></g></g></g><rect width="485" height="306" transform="translate(310 349.857)" fill="none"/></g></svg>